<svg width="81" height="90" viewBox="0 0 81 90" fill="none" xmlns="http://www.w3.org/2000/svg">
<path d="M31.0027 6.64956C34.04 -2.21656 46.5793 -2.21656 49.6165 6.64956L51.6118 12.474C53.205 17.1247 57.9868 19.8855 62.811 18.9399L68.8528 17.7556C78.0497 15.9529 84.3193 26.8122 78.1597 33.8756L74.1132 38.5158C70.8822 42.2209 70.8822 47.7424 74.1132 51.4476L78.1597 56.0877C84.3193 63.1512 78.0497 74.0105 68.8528 72.2078L62.811 71.0235C57.9868 70.0779 53.205 72.8386 51.6118 77.4894L49.6165 83.3138C46.5793 92.1799 34.04 92.1799 31.0027 83.3138L29.0075 77.4894C27.4143 72.8386 22.6325 70.0779 17.8082 71.0235L11.7665 72.2078C2.56956 74.0105 -3.70007 63.1512 2.45958 56.0877L6.50606 51.4476C9.73711 47.7424 9.73711 42.2209 6.50606 38.5158L2.45958 33.8756C-3.70007 26.8122 2.56956 15.9529 11.7665 17.7556L17.8082 18.9399C22.6325 19.8855 27.4143 17.1247 29.0075 12.474L31.0027 6.64956Z" fill="#FBC02D"/>
</svg>
